<?xml version="1.0" encoding="UTF-8"?><svg id="Calque_1" xmlns="http://www.w3.org/2000/svg" viewBox="0 0 1301.33 1543.11"><defs><style>.cls-1,.cls-2{stroke-width:0px;}.cls-2{fill:#1d1d1b;}</style></defs><rect class="cls-1" x="639.7" y="504.68" width="14.27" height="293.47"/><path class="cls-1" d="m646.83,805.29c-162.31,0-294.36-132.05-294.36-294.36s132.05-294.36,294.36-294.36c132.93,0,241.08,108.15,241.08,241.08s-108.15,241.08-241.08,241.08v-14.27c125.06,0,226.8-101.74,226.8-226.8s-101.74-226.8-226.8-226.8c-154.44,0-280.09,125.65-280.09,280.09s125.65,280.09,280.09,280.09c165.78,0,308.22-123.59,331.31-287.49l14.13,1.99c-11.62,82.47-52.7,158.26-115.67,213.42-63.57,55.68-145.17,86.35-229.77,86.35Z"/><path class="cls-1" d="m978.7,413.43c-21.01-163.88-159.96-288.04-324.73-291.54v101.82h-14.27v-116.17h7.14c85.36,0,167.51,31.15,231.33,87.72,63.26,56.08,104,132.91,114.69,216.36l-14.16,1.81Z"/><rect class="cls-1" x="250.58" y="405.39" width="121.84" height="14.27"/><rect class="cls-1" x="298.67" y="497.39" width="62.01" height="14.27"/><path class="cls-2" d="m131.07,1127.78c9.16-17.16,21.79-30.58,37.9-40.27,16.11-9.68,34.16-14.53,54.17-14.53,25.27,0,46.54,5.9,63.81,17.69,17.26,11.8,29.9,28.32,37.91,49.59h-16.43c-6.32-16.84-16.8-30.17-31.43-39.96-14.64-9.79-32.59-14.69-53.86-14.69-17.06,0-32.53,4.06-46.43,12.16-13.9,8.11-24.85,19.8-32.85,35.06-8.01,15.27-12,33.12-12,53.54s4,37.85,12,52.91c8,15.06,18.95,26.69,32.85,34.9,13.9,8.21,29.38,12.32,46.43,12.32,21.27,0,39.22-4.9,53.86-14.69,14.63-9.79,25.11-23.11,31.43-39.96h16.43c-8.01,21.27-20.64,37.8-37.91,49.59-17.27,11.8-38.54,17.69-63.81,17.69-20.01,0-38.06-4.79-54.17-14.37-16.11-9.58-28.75-22.95-37.9-40.12-9.16-17.16-13.74-36.59-13.74-58.28s4.58-41.43,13.74-58.59Z"/><path class="cls-2" d="m495.11,1240.07h-105.18l-21.16,56.86h-15.48l81.49-216.68h15.79l81.18,216.68h-15.48l-21.16-56.86Zm-4.42-12l-48.01-129.19-48.33,129.19h96.34Z"/><path class="cls-2" d="m687.15,1296.93l-56.86-94.44h-48.64v94.44h-14.21v-221.74h60.96c24.64,0,43.12,5.79,55.43,17.37,12.32,11.58,18.48,26.96,18.48,46.12,0,17.06-4.79,31.11-14.37,42.17-9.58,11.06-23.53,17.85-41.85,20.37l58.12,95.71h-17.06Zm-105.5-106.45h47.38c19.58,0,34.22-4.74,43.9-14.21,9.68-9.48,14.53-22,14.53-37.59,0-33.9-19.69-50.86-59.07-50.86h-46.75v102.66Z"/><path class="cls-2" d="m758.85,1075.19v221.74h-14.21v-221.74h14.21Z"/><path class="cls-2" d="m969.53,1296.93h-14.22l-130.14-198.36v198.36h-14.21v-221.42h14.21l130.14,197.73v-197.73h14.22v221.42Z"/><path class="cls-2" d="m1147.36,1240.07h-105.18l-21.16,56.86h-15.48l81.49-216.68h15.79l81.18,216.68h-15.48l-21.16-56.86Zm-4.42-12l-48.01-129.19-48.33,129.19h96.34Z"/><path class="cls-2" d="m168.88,1359.58c6.39,3.25,11.29,7.91,14.7,13.95,3.41,6.05,5.11,13.17,5.11,21.36s-1.7,15.3-5.11,21.31c-3.41,6.01-8.31,10.61-14.7,13.78-6.4,3.18-13.96,4.77-22.69,4.77h-24.92v-80.06h24.92c8.73,0,16.29,1.63,22.69,4.88Zm.98,58.35c5.44-5.47,8.15-13.15,8.15-23.03s-2.74-17.73-8.21-23.32c-5.48-5.59-13.34-8.38-23.6-8.38h-14.47v62.94h14.47c10.34,0,18.22-2.74,23.66-8.21Z"/><path class="cls-2" d="m249.79,1416.96h-34.92l-6.43,17.8h-11.03l28.94-79.6h12.06l28.83,79.6h-11.03l-6.43-17.8Zm-2.99-8.5l-14.47-40.43-14.47,40.43h28.95Z"/><path class="cls-2" d="m355.81,1354.7v8.5h-34.8v26.99h28.26v8.5h-28.26v36.07h-10.45v-80.06h45.25Z"/><path class="cls-2" d="m384.41,1430.34c-6.13-3.48-10.97-8.35-14.53-14.59-3.56-6.24-5.34-13.27-5.34-21.08s1.78-14.83,5.34-21.08c3.56-6.24,8.4-11.1,14.53-14.59,6.13-3.48,12.9-5.23,20.33-5.23s14.32,1.74,20.44,5.23c6.13,3.49,10.95,8.33,14.47,14.53,3.52,6.2,5.28,13.25,5.28,21.13s-1.76,14.93-5.28,21.13c-3.52,6.2-8.35,11.05-14.47,14.53-6.13,3.48-12.94,5.23-20.44,5.23s-14.2-1.74-20.33-5.23Zm35.43-7.75c4.48-2.6,8-6.32,10.57-11.14,2.56-4.83,3.85-10.41,3.85-16.77s-1.28-12.04-3.85-16.83c-2.57-4.78-6.07-8.48-10.51-11.08-4.44-2.6-9.5-3.91-15.16-3.91s-10.72,1.3-15.16,3.91c-4.44,2.6-7.95,6.3-10.51,11.08-2.57,4.79-3.85,10.4-3.85,16.83s1.28,11.95,3.85,16.77c2.56,4.82,6.09,8.54,10.57,11.14,4.48,2.6,9.51,3.91,15.1,3.91s10.62-1.3,15.1-3.91Z"/><path class="cls-2" d="m521.67,1434.76h-10.45l-42.04-63.75v63.75h-10.45v-80.17h10.45l42.04,63.63v-63.63h10.45v80.17Z"/><path class="cls-2" d="m550.67,1432.75c-4.17-1.88-7.45-4.48-9.82-7.81-2.37-3.33-3.6-7.18-3.68-11.54h11.14c.38,3.75,1.93,6.91,4.65,9.48,2.72,2.57,6.68,3.85,11.89,3.85s8.9-1.24,11.77-3.73c2.87-2.49,4.31-5.69,4.31-9.59,0-3.06-.84-5.55-2.53-7.46-1.68-1.91-3.79-3.37-6.32-4.37-2.53-.99-5.94-2.07-10.22-3.22-5.28-1.38-9.52-2.76-12.69-4.14-3.18-1.38-5.9-3.54-8.16-6.49-2.26-2.95-3.39-6.91-3.39-11.89,0-4.36,1.11-8.23,3.33-11.6,2.22-3.37,5.34-5.97,9.36-7.81,4.02-1.84,8.63-2.76,13.84-2.76,7.5,0,13.65,1.88,18.44,5.63,4.78,3.75,7.48,8.73,8.1,14.93h-11.49c-.38-3.06-1.99-5.76-4.82-8.1-2.83-2.33-6.59-3.5-11.26-3.5-4.37,0-7.93,1.13-10.68,3.39-2.76,2.26-4.14,5.42-4.14,9.48,0,2.91.82,5.28,2.47,7.12,1.65,1.84,3.68,3.24,6.09,4.19,2.41.96,5.8,2.05,10.16,3.27,5.28,1.45,9.53,2.89,12.75,4.31,3.22,1.42,5.97,3.6,8.27,6.55,2.3,2.95,3.45,6.95,3.45,12,0,3.91-1.03,7.58-3.1,11.03-2.07,3.45-5.13,6.24-9.19,8.38-4.06,2.14-8.84,3.22-14.36,3.22s-10.01-.94-14.19-2.81Z"/><path class="cls-2" d="m617.35,1363.2v26.76h29.17v8.61h-29.17v27.57h32.62v8.61h-43.07v-80.17h43.07v8.61h-32.62Z"/><path class="cls-2" d="m667.19,1373.6c3.52-6.24,8.33-11.12,14.42-14.64,6.09-3.52,12.85-5.28,20.27-5.28,8.73,0,16.35,2.11,22.86,6.32,6.51,4.21,11.26,10.18,14.24,17.92h-12.52c-2.22-4.82-5.42-8.54-9.59-11.14-4.17-2.6-9.17-3.91-14.99-3.91s-10.61,1.3-15.05,3.91c-4.44,2.6-7.92,6.3-10.45,11.08-2.53,4.79-3.79,10.4-3.79,16.83s1.26,11.93,3.79,16.71c2.53,4.79,6.01,8.48,10.45,11.08,4.44,2.6,9.46,3.91,15.05,3.91s10.81-1.28,14.99-3.85c4.17-2.56,7.37-6.26,9.59-11.08h12.52c-2.99,7.66-7.73,13.57-14.24,17.75-6.51,4.17-14.13,6.26-22.86,6.26-7.43,0-14.19-1.74-20.27-5.23-6.09-3.48-10.89-8.33-14.42-14.53s-5.28-13.21-5.28-21.02,1.76-14.83,5.28-21.08Z"/><path class="cls-2" d="m801.81,1416.96h-34.92l-6.43,17.8h-11.03l28.94-79.6h12.06l28.83,79.6h-11.03l-6.43-17.8Zm-2.99-8.5l-14.47-40.43-14.47,40.43h28.95Z"/><path class="cls-2" d="m909.26,1394.73c-4.56,4.4-11.5,6.6-20.85,6.6h-15.39v33.42h-10.45v-80.06h25.84c9.04,0,15.91,2.18,20.62,6.55,4.71,4.37,7.06,9.99,7.06,16.89s-2.28,12.19-6.83,16.6Zm-7.98-5.8c2.76-2.53,4.14-6.12,4.14-10.8,0-9.88-5.67-14.82-17-14.82h-15.39v29.4h15.39c5.82,0,10.11-1.26,12.86-3.79Z"/><path class="cls-2" d="m939.52,1354.7v80.06h-10.45v-80.06h10.45Z"/><path class="cls-2" d="m1020.27,1434.76h-10.45l-42.04-63.75v63.75h-10.45v-80.17h10.45l42.04,63.63v-63.63h10.45v80.17Z"/><path class="cls-2" d="m1087.35,1354.7v8.5h-21.82v71.56h-10.45v-71.56h-21.94v-8.5h54.21Z"/><path class="cls-2" d="m1116.17,1430.34c-6.13-3.48-10.97-8.35-14.53-14.59-3.56-6.24-5.34-13.27-5.34-21.08s1.78-14.83,5.34-21.08c3.56-6.24,8.4-11.1,14.53-14.59,6.13-3.48,12.9-5.23,20.33-5.23s14.32,1.74,20.44,5.23c6.13,3.49,10.95,8.33,14.47,14.53,3.52,6.2,5.28,13.25,5.28,21.13s-1.76,14.93-5.28,21.13c-3.52,6.2-8.35,11.05-14.47,14.53-6.13,3.48-12.94,5.23-20.44,5.23s-14.2-1.74-20.33-5.23Zm35.43-7.75c4.48-2.6,8-6.32,10.57-11.14,2.56-4.83,3.85-10.41,3.85-16.77s-1.28-12.04-3.85-16.83c-2.57-4.78-6.07-8.48-10.51-11.08-4.44-2.6-9.5-3.91-15.16-3.91s-10.72,1.3-15.16,3.91c-4.44,2.6-7.95,6.3-10.51,11.08-2.57,4.79-3.85,10.4-3.85,16.83s1.28,11.95,3.85,16.77c2.56,4.82,6.09,8.54,10.57,11.14,4.48,2.6,9.51,3.91,15.1,3.91s10.62-1.3,15.1-3.91Z"/><rect class="cls-1" x="496.9" y="891.55" width="301.92" height="14.27"/></svg>